<svg version="1.1" id="Layer_1" xmlns="http://www.w3.org/2000/svg" xmlns:xlink="http://www.w3.org/1999/xlink" x="0px" y="0px"
	 width="100%" viewBox="0 0 1024 1024" enable-background="new 0 0 1024 1024" xml:space="preserve">
<path fill="#FFFFFF" opacity="1.000000" stroke="none" 
	d="
M472.000000,1025.000000 
	C314.666656,1025.000000 157.833328,1025.000000 1.000000,1025.000000 
	C1.000000,683.666687 1.000000,342.333344 1.000000,1.000000 
	C342.333344,1.000000 683.666687,1.000000 1025.000000,1.000000 
	C1025.000000,342.333344 1025.000000,683.666687 1025.000000,1025.000000 
	C840.833313,1025.000000 656.666687,1025.000000 472.000000,1025.000000 
M294.164764,518.430664 
	C288.110413,518.499573 282.056030,518.568481 275.099854,518.383423 
	C257.827759,518.287109 240.555649,518.190857 223.698929,517.484802 
	C230.806625,506.456970 240.789505,501.334961 254.026581,501.643616 
	C270.148621,502.019470 286.286316,501.730255 302.417236,501.707153 
	C304.171478,501.704651 305.925507,501.559631 307.822266,501.474304 
	C307.822266,489.921143 307.822266,478.962036 307.993896,467.079620 
	C307.993896,461.333130 307.993896,455.586670 307.993896,448.913666 
	C285.301727,449.442322 263.189056,449.123016 241.221527,450.755859 
	C225.994324,451.887665 212.095459,458.367249 199.300812,468.175323 
	C193.248611,474.229828 186.980988,480.086456 181.194427,486.385010 
	C172.414917,495.941498 167.425293,507.539032 163.933823,520.729187 
	C163.260452,525.136353 162.587082,529.543579 161.565353,534.695984 
	C162.144669,544.801025 162.723984,554.906006 163.234879,565.562378 
	C163.449173,566.059937 163.663452,566.557495 163.820007,567.731689 
	C163.965378,568.155701 164.110748,568.579651 164.258621,569.746704 
	C168.148438,578.540405 172.038239,587.334045 176.061203,596.801941 
	C191.822327,620.625183 213.788040,635.758057 242.087296,638.698303 
	C263.511292,640.924255 285.300507,639.636658 306.927490,639.887024 
	C307.192169,639.890137 307.460785,639.553406 307.882660,639.271729 
	C307.882660,622.913940 307.882660,606.459534 308.011627,589.469788 
	C307.306152,589.227295 306.600677,588.984802 304.999573,588.531372 
	C300.693909,588.626953 296.388214,588.722534 291.311981,588.535583 
	C278.203735,588.603638 265.095490,588.671692 251.432877,588.457031 
	C250.615402,588.519226 249.797928,588.581360 248.288498,588.369324 
	C237.247421,586.965332 228.994614,581.273804 223.482468,571.214233 
	C225.294128,571.099915 227.105743,570.887207 228.917450,570.886292 
	C249.683334,570.876282 270.449219,570.898621 291.215118,570.911987 
	C292.985413,570.913147 294.755707,570.912109 296.799927,570.912109 
	C296.799927,562.196350 296.799927,554.101746 296.990143,545.085999 
	C296.928406,537.722778 296.866638,530.359619 296.988953,522.240662 
	C296.675537,521.097839 296.362122,519.954956 295.506592,518.572327 
	C295.313995,518.616577 295.121429,518.660767 294.164764,518.430664 
M621.557495,511.597198 
	C620.249207,519.751892 618.940979,527.906616 617.350098,536.940063 
	C618.655579,547.339111 619.961060,557.738220 621.349670,568.957458 
	C625.215698,581.296387 630.489624,592.914429 638.973206,603.661499 
	C641.402344,606.377258 643.714050,609.209656 646.278442,611.791077 
	C678.148254,643.872314 727.905579,651.660828 768.075684,630.903259 
	C776.122986,626.744873 776.159851,626.714600 782.120605,633.967163 
	C784.346375,636.675354 787.651001,639.146790 784.405457,643.419189 
	C783.910889,644.070251 784.846558,646.211060 785.598572,647.346191 
	C800.221619,669.418762 815.059448,691.350586 829.502563,713.539551 
	C833.533203,719.731812 838.821289,721.834534 845.610229,720.970520 
	C854.784729,719.802734 861.851379,715.151123 866.278931,706.971130 
	C870.364624,699.422791 869.621765,694.295410 863.734802,688.053589 
	C846.248230,669.512878 828.735291,650.996765 811.159790,632.540527 
	C808.451233,629.696167 806.443237,625.284973 801.095032,626.934265 
	C800.693481,627.058105 799.921997,626.380188 799.483337,625.921265 
	C796.721985,623.032349 793.922302,620.170776 791.347290,617.121155 
	C790.840820,616.521423 791.259521,615.140381 791.865540,613.900879 
	C801.010986,605.231628 808.193970,595.150452 813.357849,583.667786 
	C814.284058,581.608154 814.615479,579.281128 815.898132,576.854126 
	C820.437805,567.072815 822.338379,556.702393 823.019470,545.094788 
	C823.499939,533.842224 822.737183,522.740845 819.013428,511.227264 
	C815.692383,503.783386 812.371338,496.339508 808.933594,488.216492 
	C801.924988,476.734802 793.523315,466.514008 781.934631,458.230713 
	C777.884460,455.598328 773.961792,452.739258 769.760010,450.376587 
	C757.717957,443.605377 744.699524,439.769379 730.976807,438.509521 
	C703.226135,435.961792 677.947388,442.218109 655.391663,460.273468 
	C644.199341,469.098450 635.582947,480.009491 628.715088,493.127869 
	C626.466614,499.079498 624.218140,505.031128 621.557495,511.597198 
M310.128357,432.657562 
	C318.629303,441.112701 327.198212,449.501312 335.586639,458.066650 
	C337.871613,460.399872 339.543518,460.448242 341.770203,458.157745 
	C352.531799,447.088074 363.363708,436.086731 374.830963,424.939209 
	C378.670471,421.060089 382.468292,417.138458 386.363434,413.316010 
	C389.195160,410.537109 392.160156,405.750946 395.057251,405.757263 
	C398.242676,405.764191 401.417633,410.235962 404.601257,412.757263 
	C404.728607,412.858154 404.898743,412.904999 405.344147,413.569519 
	C413.074768,421.085052 420.978546,428.433624 428.458313,436.191040 
	C431.872955,439.732483 434.066864,439.382874 437.265289,436.028870 
	C443.443542,429.549988 449.904633,423.328156 456.468079,417.236359 
	C458.636047,415.224182 461.479736,413.940033 464.014465,412.323029 
	C463.553680,411.523010 463.092926,410.722992 462.632141,409.922974 
	C459.087524,406.498901 455.542908,403.074829 451.738586,399.077606 
	C446.514435,393.990234 441.290314,388.902863 435.794647,383.214233 
	C422.938324,369.808136 410.081970,356.402039 397.076416,342.840363 
	C395.425720,344.211304 394.358032,344.969696 393.440216,345.879303 
	C375.608276,363.551971 357.793854,381.242279 339.368347,399.214142 
	C331.213562,407.384735 323.058746,415.555298 314.305664,424.024750 
	C313.088562,425.315491 311.871460,426.606232 310.059967,428.226257 
	C309.987061,429.498230 309.914154,430.770233 310.128357,432.657562 
M622.749207,478.614899 
	C628.978088,469.286987 635.207031,459.959106 641.476074,450.571167 
	C640.525146,450.067932 640.238831,449.783997 639.952148,449.783600 
	C618.536011,449.753937 597.119629,449.711975 575.704163,449.829895 
	C574.507385,449.836456 572.903564,450.897644 572.196167,451.945343 
	C568.955139,456.745758 565.965942,461.716339 562.329163,467.055878 
	C556.475342,476.553253 550.621521,486.050629 544.216003,495.980316 
	C542.727295,498.213867 541.238586,500.447418 539.749939,502.680969 
	C539.376221,502.543793 539.002441,502.406616 538.628723,502.269409 
	C538.628723,495.857117 538.628723,489.444855 538.817505,482.106659 
	C538.746948,472.410431 538.676453,462.714172 538.801331,452.098236 
	C538.745056,444.734528 538.688721,437.370850 538.821350,429.087402 
	C538.821350,411.029388 538.821350,392.971375 538.821350,374.770905 
	C549.659851,374.770905 559.644470,374.875183 569.623108,374.679169 
	C571.521301,374.641876 573.396118,373.416565 575.281738,372.739410 
	C574.483521,371.043915 574.061096,368.987579 572.831055,367.706787 
	C552.886536,346.938690 532.820740,326.287048 512.844421,305.549316 
	C510.809814,303.437225 509.434845,303.099060 507.178253,305.427490 
	C487.138733,326.104889 466.963226,346.650513 446.917786,367.322235 
	C445.556824,368.725739 444.923187,370.834534 443.951263,372.615326 
	C445.971405,373.333893 447.979034,374.629150 450.013855,374.673370 
	C459.946899,374.889191 469.887238,374.771027 480.794800,374.771027 
	C480.794800,394.501312 480.794800,413.743195 480.611206,433.890961 
	C480.639465,444.589752 480.667694,455.288544 480.420654,466.889313 
	C480.506836,477.250183 480.593048,487.611084 480.426086,498.755829 
	C480.502258,507.185028 480.578430,515.614258 480.398560,524.938477 
	C480.496979,539.623230 480.595398,554.307983 480.429688,569.896729 
	C480.512421,578.262390 480.595154,586.628113 480.414581,595.897156 
	C480.414581,610.481689 480.414581,625.066223 480.414581,639.719299 
	C500.481384,639.719299 519.668152,639.719299 538.766113,639.719299 
	C538.766113,624.176575 538.766113,609.044556 538.968018,593.292542 
	C539.061401,592.224060 539.154846,591.155579 539.283203,589.687622 
	C540.990723,591.709412 542.406555,593.385742 543.928894,595.594788 
	C544.327087,596.184265 544.725220,596.773743 545.150757,597.371094 
	C545.150757,597.371094 545.106445,597.393738 545.421509,598.043274 
	C553.944275,610.763184 562.537476,623.436951 570.934875,636.239136 
	C572.771179,639.038696 574.767883,640.210266 578.202454,640.179871 
	C597.700806,640.007019 617.201355,640.094238 636.701172,640.065796 
	C638.089905,640.063782 639.478394,639.843384 641.863281,639.639282 
	C630.683594,622.897644 619.989624,606.883423 609.161255,590.297058 
	C608.789368,589.857910 608.417480,589.418701 607.938477,588.356812 
	C607.309387,587.528870 606.680298,586.700928 605.897888,585.207214 
	C601.291382,578.395996 596.684875,571.584778 591.927307,564.105408 
	C588.214233,558.516113 584.413269,552.981445 580.874084,547.284058 
	C580.281128,546.329468 580.342407,544.393677 580.922485,543.382080 
	C583.851318,538.273987 587.051697,533.321716 590.714417,527.905151 
	C595.520691,520.383606 600.326904,512.862061 605.695312,504.927765 
	C611.202759,496.282684 616.710144,487.637634 622.749207,478.614899 
M350.598999,468.636658 
	C350.598999,468.636658 350.561279,468.610687 349.934052,468.850708 
	C339.785889,476.210968 332.256439,485.852753 325.277802,496.930573 
	C321.867493,505.953827 318.457153,514.977051 314.727631,524.726562 
	C311.764801,539.925720 311.489441,555.040466 316.142090,570.762573 
	C319.675507,582.565796 324.986450,593.453918 333.062042,603.686707 
	C334.173279,604.924927 335.304230,606.146057 336.392853,607.403809 
	C366.997314,642.762817 419.081818,649.816345 459.605621,628.676086 
	C461.196747,627.846130 462.686829,625.293030 462.804657,623.451965 
	C463.175507,617.658386 462.868713,611.821533 463.017853,605.081665 
	C463.017853,591.701965 463.017853,578.322266 463.017853,565.007446 
	C457.908875,563.858887 454.882446,565.067505 451.844940,568.979126 
	C448.038239,573.881409 443.379211,578.433167 438.274719,581.958618 
	C422.428528,592.902893 393.187744,594.734131 374.889771,568.209900 
	C367.097748,555.052917 366.072266,541.360901 372.037476,526.652405 
	C378.206177,513.629395 388.376648,505.308380 402.811615,501.159241 
	C403.542999,500.973480 404.274353,500.787720 405.546387,500.705261 
	C406.050995,500.513306 406.555634,500.321350 407.972107,500.207977 
	C411.646149,500.145569 415.320221,500.083130 419.638000,500.320496 
	C421.755920,500.738281 423.873840,501.156036 426.590576,501.924591 
	C427.046326,501.979004 427.502075,502.033417 428.489410,502.529358 
	C440.220856,507.139038 449.071960,515.084045 455.271912,525.889587 
	C457.531891,525.460510 459.572998,525.072998 462.817322,524.457092 
	C462.817322,514.789978 462.817322,504.899353 463.005829,494.104401 
	C462.944031,487.653107 462.882233,481.201843 463.017792,474.020264 
	C463.051147,471.189545 463.484039,468.285645 462.983490,465.552704 
	C462.623688,463.588379 461.482239,461.034363 459.899048,460.135345 
	C429.146515,442.672424 384.429749,442.724152 352.354797,466.986206 
	C351.784546,467.537262 351.214294,468.088318 350.598999,468.636658 
z"/>
<path fill="#238ED3" opacity="1.000000" stroke="none" 
	d="
M480.794800,432.985077 
	C480.794800,413.743195 480.794800,394.501312 480.794800,374.771027 
	C469.887238,374.771027 459.946899,374.889191 450.013855,374.673370 
	C447.979034,374.629150 445.971405,373.333893 443.951263,372.615326 
	C444.923187,370.834534 445.556824,368.725739 446.917786,367.322235 
	C466.963226,346.650513 487.138733,326.104889 507.178253,305.427490 
	C509.434845,303.099060 510.809814,303.437225 512.844421,305.549316 
	C532.820740,326.287048 552.886536,346.938690 572.831055,367.706787 
	C574.061096,368.987579 574.483521,371.043915 575.281738,372.739410 
	C573.396118,373.416565 571.521301,374.641876 569.623108,374.679169 
	C559.644470,374.875183 549.659851,374.770905 538.821350,374.770905 
	C538.821350,392.971375 538.821350,411.029388 538.371643,429.617554 
	C532.986084,431.098907 528.068237,432.740387 523.110901,432.870026 
	C509.014160,433.238586 494.901306,432.990448 480.794800,432.985077 
z"/>
<path fill="#30547E" opacity="1.000000" stroke="none" 
	d="
M791.251526,614.119690 
	C791.259521,615.140381 790.840820,616.521423 791.347290,617.121155 
	C793.922302,620.170776 796.721985,623.032349 799.483337,625.921265 
	C799.921997,626.380188 800.693481,627.058105 801.095032,626.934265 
	C806.443237,625.284973 808.451233,629.696167 811.159790,632.540527 
	C828.735291,650.996765 846.248230,669.512878 863.734802,688.053589 
	C869.621765,694.295410 870.364624,699.422791 866.278931,706.971130 
	C861.851379,715.151123 854.784729,719.802734 845.610229,720.970520 
	C838.821289,721.834534 833.533203,719.731812 829.502563,713.539551 
	C815.059448,691.350586 800.221619,669.418762 785.598572,647.346191 
	C784.846558,646.211060 783.910889,644.070251 784.405457,643.419189 
	C787.651001,639.146790 784.346375,636.675354 782.120605,633.967163 
	C776.159851,626.714600 776.122986,626.744873 768.075684,630.903259 
	C727.905579,651.660828 678.148254,643.872314 646.278442,611.791077 
	C643.714050,609.209656 641.402344,606.377258 639.290894,603.320190 
	C645.323669,601.668884 651.069519,600.476868 656.740967,598.999573 
	C659.608276,598.252747 662.341125,596.989807 665.438049,596.089844 
	C683.024963,612.408386 703.555969,618.997070 727.030090,617.152039 
	C741.687927,616.000000 754.711548,610.537659 766.955322,603.036438 
	C768.838379,604.287231 770.573608,605.623657 772.469238,605.914551 
	C779.497498,606.993225 786.793335,607.230469 791.251526,614.119690 
z"/>
<path fill="#30547E" opacity="1.000000" stroke="none" 
	d="
M248.980438,588.643555 
	C249.797928,588.581360 250.615402,588.519226 251.898544,588.913696 
	C252.970901,589.577087 253.577011,589.962219 254.184357,589.964172 
	C265.790680,590.001526 277.397369,590.023438 289.003265,589.944214 
	C290.032196,589.937256 291.056244,589.210510 292.082550,588.818115 
	C296.388214,588.722534 300.693909,588.626953 305.596466,588.914856 
	C306.756470,589.533936 307.319550,589.769531 307.882660,590.005127 
	C307.882660,606.459534 307.882660,622.913940 307.882660,639.271729 
	C307.460785,639.553406 307.192169,639.890137 306.927490,639.887024 
	C285.300507,639.636658 263.511292,640.924255 242.087296,638.698303 
	C213.788040,635.758057 191.822327,620.625183 176.278168,596.146729 
	C178.291245,595.327698 180.096375,594.955627 181.882080,595.032837 
	C195.911667,595.640076 209.948471,596.978210 223.960190,596.741211 
	C231.522247,596.613281 239.067169,593.949951 246.544876,592.123718 
	C247.578400,591.871338 248.179276,589.847351 248.980438,588.643555 
z"/>
<path fill="#247BB7" opacity="1.000000" stroke="none" 
	d="
M164.257706,519.991638 
	C167.425293,507.539032 172.414917,495.941498 181.194427,486.385010 
	C186.980988,480.086456 193.248611,474.229828 200.035156,468.086792 
	C212.270615,471.611084 224.219147,471.452148 236.052383,471.900116 
	C242.461777,472.142731 248.947342,470.735748 255.334900,471.122925 
	C272.821167,472.182861 290.281982,473.944885 307.326416,468.010834 
	C307.474640,467.959198 307.656250,468.003448 307.822266,468.002930 
	C307.822266,478.962036 307.822266,489.921143 307.822266,501.474304 
	C305.925507,501.559631 304.171478,501.704651 302.417236,501.707153 
	C286.286316,501.730255 270.148621,502.019470 254.026581,501.643616 
	C240.789505,501.334961 230.806625,506.456970 223.154068,517.771118 
	C219.298874,518.949585 215.975784,520.635986 212.680618,520.583008 
	C203.294205,520.432373 193.925339,519.293945 184.537582,519.086487 
	C177.787582,518.937439 171.018356,519.658630 164.257706,519.991638 
z"/>
<path fill="#296698" opacity="1.000000" stroke="none" 
	d="
M480.693817,568.992737 
	C480.595398,554.307983 480.496979,539.623230 480.920837,524.476807 
	C486.394623,523.678406 491.486267,522.432007 496.272156,523.169617 
	C512.893066,525.731140 529.521912,525.672485 546.246399,525.121033 
	C554.843872,524.837585 563.479370,525.647766 572.095337,526.017212 
	C575.874451,526.179199 579.663330,526.337036 583.417969,526.760803 
	C585.693787,527.017578 587.912476,527.779663 590.156860,528.314758 
	C587.051697,533.321716 583.851318,538.273987 580.922485,543.382080 
	C580.342407,544.393677 580.281128,546.329468 580.874084,547.284058 
	C584.413269,552.981445 588.214233,558.516113 591.981445,564.846680 
	C592.112610,570.024170 588.626038,570.833679 585.614502,570.877441 
	C570.414062,571.098267 555.196167,571.348022 540.008301,570.853271 
	C524.166870,570.337341 508.358246,568.873169 492.522552,568.076416 
	C488.604919,567.879333 484.638062,568.661011 480.693817,568.992737 
z"/>
<path fill="#30547E" opacity="1.000000" stroke="none" 
	d="
M462.824249,606.001404 
	C462.868713,611.821533 463.175507,617.658386 462.804657,623.451965 
	C462.686829,625.293030 461.196747,627.846130 459.605621,628.676086 
	C419.081818,649.816345 366.997314,642.762817 336.392853,607.403809 
	C335.304230,606.146057 334.173279,604.924927 333.369202,603.354309 
	C339.083313,602.359009 344.553131,600.824524 349.884644,601.208801 
	C362.198761,602.096252 374.352051,605.565430 386.853668,603.038818 
	C387.949829,602.817200 389.161377,603.235657 390.319977,603.242126 
	C396.077850,603.274475 401.836487,603.322327 407.593811,603.263000 
	C415.827820,603.178162 424.086090,602.541687 432.288055,602.987061 
	C442.491272,603.541077 452.647644,604.957458 462.824249,606.001404 
z"/>
<path fill="#296698" opacity="1.000000" stroke="none" 
	d="
M164.256104,569.003662 
	C164.110748,568.579651 163.965378,568.155701 164.086670,567.249878 
	C164.003311,566.182373 163.653305,565.596680 163.303314,565.011047 
	C162.723984,554.906006 162.144669,544.801025 162.045807,534.596069 
	C162.863693,536.893494 163.201126,539.290833 163.549011,541.762573 
	C169.177505,541.505249 174.460968,540.912048 179.717804,541.092834 
	C192.638351,541.537231 205.542435,542.442383 218.461136,542.964233 
	C230.244598,543.440308 242.042648,543.552185 253.826874,544.013611 
	C268.155273,544.574707 282.475922,545.333801 296.799927,546.007202 
	C296.799927,554.101746 296.799927,562.196350 296.799927,570.912109 
	C294.755707,570.912109 292.985413,570.913147 291.215118,570.911987 
	C270.449219,570.898621 249.683334,570.876282 228.917450,570.886292 
	C227.105743,570.887207 225.294128,571.099915 222.840790,571.602600 
	C215.181702,571.649536 208.137894,571.581177 201.152664,570.906494 
	C188.874695,569.720459 176.654999,567.741638 164.256104,569.003662 
z"/>
<path fill="#2C5C8A" opacity="1.000000" stroke="none" 
	d="
M462.921051,605.541504 
	C452.647644,604.957458 442.491272,603.541077 432.288055,602.987061 
	C424.086090,602.541687 415.827820,603.178162 407.593811,603.263000 
	C401.836487,603.322327 396.077850,603.274475 390.319977,603.242126 
	C389.161377,603.235657 387.949829,602.817200 386.853668,603.038818 
	C374.352051,605.565430 362.198761,602.096252 349.884644,601.208801 
	C344.553131,600.824524 339.083313,602.359009 333.224487,603.044861 
	C324.986450,593.453918 319.675507,582.565796 316.535889,570.438843 
	C321.813965,570.860352 326.745392,571.382141 331.572266,572.399658 
	C340.324921,574.244690 349.033173,575.787292 358.021362,574.095520 
	C360.105530,573.703186 362.512512,573.527649 364.458069,574.182373 
	C369.973053,576.038086 373.002777,573.647095 375.032471,568.901306 
	C393.187744,594.734131 422.428528,592.902893 438.274719,581.958618 
	C443.379211,578.433167 448.038239,573.881409 451.844940,568.979126 
	C454.882446,565.067505 457.908875,563.858887 463.017853,565.007446 
	C463.017853,578.322266 463.017853,591.701965 462.921051,605.541504 
z"/>
<path fill="#238ED3" opacity="1.000000" stroke="none" 
	d="
M339.975830,398.928955 
	C357.793854,381.242279 375.608276,363.551971 393.440216,345.879303 
	C394.358032,344.969696 395.425720,344.211304 397.076416,342.840363 
	C410.081970,356.402039 422.938324,369.808136 435.915039,383.904816 
	C437.091339,387.190674 437.934479,389.899689 439.248077,392.357239 
	C441.860962,397.245483 441.314148,399.669098 435.878479,400.357361 
	C428.734100,401.262024 421.442749,401.103668 414.211823,401.203278 
	C403.961487,401.344513 393.528534,400.113434 383.500519,401.630188 
	C369.662415,403.723267 356.046875,402.761230 342.333435,401.849182 
	C341.486572,401.792877 340.758942,399.943878 339.975830,398.928955 
z"/>
<path fill="#2672AB" opacity="1.000000" stroke="none" 
	d="
M590.435669,528.109985 
	C587.912476,527.779663 585.693787,527.017578 583.417969,526.760803 
	C579.663330,526.337036 575.874451,526.179199 572.095337,526.017212 
	C563.479370,525.647766 554.843872,524.837585 546.246399,525.121033 
	C529.521912,525.672485 512.893066,525.731140 496.272156,523.169617 
	C491.486267,522.432007 486.394623,523.678406 481.048859,524.029297 
	C480.578430,515.614258 480.502258,507.185028 481.018707,498.371826 
	C484.551331,497.659637 487.485199,497.127075 490.432404,497.038208 
	C504.144470,496.624939 517.859131,496.196136 531.575317,496.084991 
	C535.647217,496.051971 537.230225,494.818634 537.112549,490.648468 
	C537.041321,488.126099 538.085571,485.572266 538.628662,483.032562 
	C538.628723,489.444855 538.628723,495.857117 538.628723,502.269409 
	C539.002441,502.406616 539.376221,502.543793 539.749939,502.680969 
	C541.238586,500.447418 542.727295,498.213867 544.671692,496.134766 
	C547.703491,497.190918 550.234619,498.699921 552.863159,498.894989 
	C569.042358,500.095642 585.240356,501.058960 601.440918,501.939880 
	C603.935181,502.075531 605.213013,502.775513 605.133118,505.340454 
	C600.326904,512.862061 595.520691,520.383606 590.435669,528.109985 
z"/>
<path fill="#2672AB" opacity="1.000000" stroke="none" 
	d="
M296.895020,545.546570 
	C282.475922,545.333801 268.155273,544.574707 253.826874,544.013611 
	C242.042648,543.552185 230.244598,543.440308 218.461136,542.964233 
	C205.542435,542.442383 192.638351,541.537231 179.717804,541.092834 
	C174.460968,540.912048 169.177505,541.505249 163.549011,541.762573 
	C163.201126,539.290833 162.863693,536.893494 162.220001,534.223450 
	C162.587082,529.543579 163.260452,525.136353 164.095764,520.360413 
	C171.018356,519.658630 177.787582,518.937439 184.537582,519.086487 
	C193.925339,519.293945 203.294205,520.432373 212.680618,520.583008 
	C215.975784,520.635986 219.298874,518.949585 222.946381,518.076050 
	C240.555649,518.190857 257.827759,518.287109 275.684753,518.809082 
	C282.692719,522.792236 289.644867,523.461731 296.804901,522.996399 
	C296.866638,530.359619 296.928406,537.722778 296.895020,545.546570 
z"/>
<path fill="#30547E" opacity="1.000000" stroke="none" 
	d="
M609.295715,590.869202 
	C619.989624,606.883423 630.683594,622.897644 641.863281,639.639282 
	C639.478394,639.843384 638.089905,640.063782 636.701172,640.065796 
	C617.201355,640.094238 597.700806,640.007019 578.202454,640.179871 
	C574.767883,640.210266 572.771179,639.038696 570.934875,636.239136 
	C562.537476,623.436951 553.944275,610.763184 545.710327,597.612671 
	C550.013672,596.454651 554.010254,595.597961 558.048340,595.041931 
	C561.145752,594.615417 564.293091,594.523438 567.422302,594.361084 
	C575.834900,593.924622 584.318909,592.701538 592.640320,593.396851 
	C598.665222,593.900330 604.095032,594.157410 609.295715,590.869202 
z"/>
<path fill="#247BB7" opacity="1.000000" stroke="none" 
	d="
M418.994263,500.020691 
	C415.320221,500.083130 411.646149,500.145569 407.377960,499.932831 
	C406.191101,499.972443 405.598419,500.287201 405.005737,500.601929 
	C404.274353,500.787720 403.542999,500.973480 402.195251,500.853027 
	C399.848877,500.839600 398.118896,501.132355 396.442169,501.300842 
	C396.495422,501.176514 396.615997,501.418640 396.143066,501.308777 
	C392.237335,500.800049 388.811005,500.129974 385.370575,500.047699 
	C367.358826,499.616669 349.343475,499.334961 331.329376,499.000366 
	C330.170990,498.978821 328.881226,499.254150 327.894318,498.829559 
	C327.038116,498.461182 326.525055,497.295349 325.860321,496.481964 
	C332.256439,485.852753 339.785889,476.210968 350.394836,469.111053 
	C352.695923,470.552826 354.389404,472.175323 356.400146,472.844421 
	C369.904572,477.338226 384.100769,477.390686 398.008362,477.727875 
	C416.157928,478.167816 434.356415,476.709991 452.529358,475.959656 
	C455.970520,475.817535 459.390625,475.166687 462.820465,474.750549 
	C462.882233,481.201843 462.944031,487.653107 462.553070,494.641724 
	C460.072479,496.119690 458.128174,497.558655 456.002380,497.914948 
	C446.682861,499.476959 437.310822,500.725586 427.957825,502.087830 
	C427.502075,502.033417 427.046326,501.979004 426.192352,501.431030 
	C423.527496,500.631897 421.260895,500.326294 418.994263,500.020691 
z"/>
<path fill="#2C5C8A" opacity="1.000000" stroke="none" 
	d="
M609.228516,590.583130 
	C604.095032,594.157410 598.665222,593.900330 592.640320,593.396851 
	C584.318909,592.701538 575.834900,593.924622 567.422302,594.361084 
	C564.293091,594.523438 561.145752,594.615417 558.048340,595.041931 
	C554.010254,595.597961 550.013672,596.454651 545.552856,597.287842 
	C545.106445,597.393738 545.150757,597.371094 545.365356,597.065063 
	C544.994019,596.193420 544.408142,595.627808 543.822327,595.062134 
	C542.406555,593.385742 540.990723,591.709412 539.283203,589.687622 
	C539.154846,591.155579 539.061401,592.224060 538.463013,593.725342 
	C536.832214,594.677490 535.688293,595.682678 534.583313,595.641602 
	C522.376221,595.188049 510.179840,594.386597 497.970490,594.081482 
	C492.217468,593.937683 486.442780,594.662537 480.677887,594.993774 
	C480.595154,586.628113 480.512421,578.262390 480.561768,569.444702 
	C484.638062,568.661011 488.604919,567.879333 492.522552,568.076416 
	C508.358246,568.873169 524.166870,570.337341 540.008301,570.853271 
	C555.196167,571.348022 570.414062,571.098267 585.614502,570.877441 
	C588.626038,570.833679 592.112610,570.024170 592.057007,565.180725 
	C596.684875,571.584778 601.291382,578.395996 605.967346,585.906616 
	C606.706421,587.397095 607.376038,588.188293 608.045593,588.979492 
	C608.417480,589.418701 608.789368,589.857910 609.228516,590.583130 
z"/>
<path fill="#2289CC" opacity="1.000000" stroke="none" 
	d="
M656.018799,460.038452 
	C677.947388,442.218109 703.226135,435.961792 730.976807,438.509521 
	C744.699524,439.769379 757.717957,443.605377 769.760010,450.376587 
	C773.961792,452.739258 777.884460,455.598328 781.795044,458.688293 
	C779.400757,463.192352 775.252136,463.698608 771.374329,465.087311 
	C766.596985,466.798187 760.676636,466.726227 757.539062,472.208130 
	C743.832642,465.430695 729.685303,461.818939 714.802612,463.425201 
	C705.815735,464.395172 697.017883,467.117523 687.754150,469.000458 
	C681.050659,467.632141 674.714111,466.378998 668.410522,464.977936 
	C664.029236,464.004181 658.539551,465.707581 656.018799,460.038452 
z"/>
<path fill="#30547E" opacity="1.000000" stroke="none" 
	d="
M480.546234,595.445435 
	C486.442780,594.662537 492.217468,593.937683 497.970490,594.081482 
	C510.179840,594.386597 522.376221,595.188049 534.583313,595.641602 
	C535.688293,595.682678 536.832214,594.677490 538.362061,594.035400 
	C538.766113,609.044556 538.766113,624.176575 538.766113,639.719299 
	C519.668152,639.719299 500.481384,639.719299 480.414581,639.719299 
	C480.414581,625.066223 480.414581,610.481689 480.546234,595.445435 
z"/>
<path fill="#296698" opacity="1.000000" stroke="none" 
	d="
M374.961121,568.555603 
	C373.002777,573.647095 369.973053,576.038086 364.458069,574.182373 
	C362.512512,573.527649 360.105530,573.703186 358.021362,574.095520 
	C349.033173,575.787292 340.324921,574.244690 331.572266,572.399658 
	C326.745392,571.382141 321.813965,570.860352 316.539429,570.057678 
	C311.489441,555.040466 311.764801,539.925720 315.292816,524.373230 
	C327.003387,525.348267 338.120178,527.098389 349.304230,527.855896 
	C356.700439,528.356812 364.193176,527.433105 371.642700,527.147278 
	C366.072266,541.360901 367.097748,555.052917 374.961121,568.555603 
z"/>
<path fill="#2383C4" opacity="1.000000" stroke="none" 
	d="
M462.919128,474.385406 
	C459.390625,475.166687 455.970520,475.817535 452.529358,475.959656 
	C434.356415,476.709991 416.157928,478.167816 398.008362,477.727875 
	C384.100769,477.390686 369.904572,477.338226 356.400146,472.844421 
	C354.389404,472.175323 352.695923,470.552826 350.708466,468.991028 
	C350.561279,468.610687 350.598999,468.636658 350.981537,468.719727 
	C351.893890,468.154388 352.423706,467.505951 352.953552,466.857544 
	C384.429749,442.724152 429.146515,442.672424 459.899048,460.135345 
	C461.482239,461.034363 462.623688,463.588379 462.983490,465.552704 
	C463.484039,468.285645 463.051147,471.189545 462.919128,474.385406 
z"/>
<path fill="#2289CC" opacity="1.000000" stroke="none" 
	d="
M339.672058,399.071533 
	C340.758942,399.943878 341.486572,401.792877 342.333435,401.849182 
	C356.046875,402.761230 369.662415,403.723267 383.500519,401.630188 
	C393.528534,400.113434 403.961487,401.344513 414.211823,401.203278 
	C421.442749,401.103668 428.734100,401.262024 435.878479,400.357361 
	C441.314148,399.669098 441.860962,397.245483 439.248077,392.357239 
	C437.934479,389.899689 437.091339,387.190674 436.050781,384.205444 
	C441.290314,388.902863 446.514435,393.990234 451.864807,399.781158 
	C451.911377,405.145691 449.270844,408.148193 445.004272,408.762115 
	C436.821869,409.939453 428.539795,410.414032 420.305695,411.245850 
	C415.213776,411.760254 410.134125,412.395874 405.048950,412.977051 
	C404.898743,412.904999 404.728607,412.858154 404.601257,412.757263 
	C401.417633,410.235962 398.242676,405.764191 395.057251,405.757263 
	C392.160156,405.750946 389.195160,410.537109 386.363434,413.316010 
	C382.468292,417.138458 378.670471,421.060089 374.067078,424.982056 
	C371.682037,425.255432 370.032593,425.364838 368.444305,425.735931 
	C357.348999,428.328308 346.267120,431.088501 334.724365,429.972443 
	C329.505707,429.467896 324.329163,428.328064 319.107971,428.121002 
	C315.760162,427.988281 314.622162,426.809662 314.903961,423.725891 
	C323.058746,415.555298 331.213562,407.384735 339.672058,399.071533 
z"/>
<path fill="#2383C4" opacity="1.000000" stroke="none" 
	d="
M307.908081,467.541260 
	C307.656250,468.003448 307.474640,467.959198 307.326416,468.010834 
	C290.281982,473.944885 272.821167,472.182861 255.334900,471.122925 
	C248.947342,470.735748 242.461777,472.142731 236.052383,471.900116 
	C224.219147,471.452148 212.270615,471.611084 200.358612,467.989563 
	C212.095459,458.367249 225.994324,451.887665 241.221527,450.755859 
	C263.189056,449.123016 285.301727,449.442322 307.993896,448.913666 
	C307.993896,455.586670 307.993896,461.333130 307.908081,467.541260 
z"/>
<path fill="#2383C4" opacity="1.000000" stroke="none" 
	d="
M480.703003,433.438019 
	C494.901306,432.990448 509.014160,433.238586 523.110901,432.870026 
	C528.068237,432.740387 532.986084,431.098907 538.277161,430.077454 
	C538.688721,437.370850 538.745056,444.734528 538.346191,452.688202 
	C537.414551,456.953552 536.938110,460.628906 536.328308,465.332703 
	C517.866455,465.549927 499.281189,465.768646 480.695923,465.987335 
	C480.667694,455.288544 480.639465,444.589752 480.703003,433.438019 
z"/>
<path fill="#247BB7" opacity="1.000000" stroke="none" 
	d="
M480.558289,466.438324 
	C499.281189,465.768646 517.866455,465.549927 536.328308,465.332703 
	C536.938110,460.628906 537.414551,456.953552 538.248474,453.148071 
	C538.676453,462.714172 538.746948,472.410431 538.723083,482.569611 
	C538.085571,485.572266 537.041321,488.126099 537.112549,490.648468 
	C537.230225,494.818634 535.647217,496.051971 531.575317,496.084991 
	C517.859131,496.196136 504.144470,496.624939 490.432404,497.038208 
	C487.485199,497.127075 484.551331,497.659637 481.145264,497.979889 
	C480.593048,487.611084 480.506836,477.250183 480.558289,466.438324 
z"/>
<path fill="#2383C4" opacity="1.000000" stroke="none" 
	d="
M562.886353,466.625824 
	C565.965942,461.716339 568.955139,456.745758 572.196167,451.945343 
	C572.903564,450.897644 574.507385,449.836456 575.704163,449.829895 
	C597.119629,449.711975 618.536011,449.753937 639.952148,449.783600 
	C640.238831,449.783997 640.525146,450.067932 641.476074,450.571167 
	C635.207031,459.959106 628.978088,469.286987 622.043335,478.797668 
	C612.829895,478.653259 604.210449,479.068298 595.843567,477.807556 
	C585.809753,476.295685 575.956360,473.486664 566.120178,470.879456 
	C564.761841,470.519409 563.950806,468.094696 562.886353,466.625824 
z"/>
<path fill="#2672AB" opacity="1.000000" stroke="none" 
	d="
M371.840088,526.899841 
	C364.193176,527.433105 356.700439,528.356812 349.304230,527.855896 
	C338.120178,527.098389 327.003387,525.348267 315.452423,524.010132 
	C318.457153,514.977051 321.867493,505.953827 325.569061,496.706268 
	C326.525055,497.295349 327.038116,498.461182 327.894318,498.829559 
	C328.881226,499.254150 330.170990,498.978821 331.329376,499.000366 
	C349.343475,499.334961 367.358826,499.616669 385.370575,500.047699 
	C388.811005,500.129974 392.237335,500.800049 396.118286,501.343567 
	C396.566376,501.488220 396.388916,501.425140 396.388916,501.425140 
	C398.118896,501.132355 399.848877,500.839600 401.816040,500.826935 
	C388.376648,505.308380 378.206177,513.629395 371.840088,526.899841 
z"/>
<path fill="#2C5C8A" opacity="1.000000" stroke="none" 
	d="
M164.257355,569.375183 
	C176.654999,567.741638 188.874695,569.720459 201.152664,570.906494 
	C208.137894,571.581177 215.181702,571.649536 222.641998,571.985107 
	C228.994614,581.273804 237.247421,586.965332 248.634460,588.506470 
	C248.179276,589.847351 247.578400,591.871338 246.544876,592.123718 
	C239.067169,593.949951 231.522247,596.613281 223.960190,596.741211 
	C209.948471,596.978210 195.911667,595.640076 181.882080,595.032837 
	C180.096375,594.955627 178.291245,595.327698 176.211578,595.809631 
	C172.038239,587.334045 168.148438,578.540405 164.257355,569.375183 
z"/>
<path fill="#247BB7" opacity="1.000000" stroke="none" 
	d="
M562.607788,466.840851 
	C563.950806,468.094696 564.761841,470.519409 566.120178,470.879456 
	C575.956360,473.486664 585.809753,476.295685 595.843567,477.807556 
	C604.210449,479.068298 612.829895,478.653259 621.777527,478.986481 
	C616.710144,487.637634 611.202759,496.282684 605.414185,505.134094 
	C605.213013,502.775513 603.935181,502.075531 601.440918,501.939880 
	C585.240356,501.058960 569.042358,500.095642 552.863159,498.894989 
	C550.234619,498.699921 547.703491,497.190918 544.947571,495.918610 
	C550.621521,486.050629 556.475342,476.553253 562.607788,466.840851 
z"/>
<path fill="#2383C4" opacity="1.000000" stroke="none" 
	d="
M314.604797,423.875305 
	C314.622162,426.809662 315.760162,427.988281 319.107971,428.121002 
	C324.329163,428.328064 329.505707,429.467896 334.724365,429.972443 
	C346.267120,431.088501 357.348999,428.328308 368.444305,425.735931 
	C370.032593,425.364838 371.682037,425.255432 373.736908,425.043030 
	C363.363708,436.086731 352.531799,447.088074 341.770203,458.157745 
	C339.543518,460.448242 337.871613,460.399872 335.586639,458.066650 
	C327.198212,449.501312 318.629303,441.112701 310.346497,432.308533 
	C311.696472,431.040436 312.828339,430.121368 314.735565,428.572693 
	C312.545898,428.210175 311.600128,428.053589 310.654358,427.896973 
	C311.871460,426.606232 313.088562,425.315491 314.604797,423.875305 
z"/>
<path fill="#2C5C8A" opacity="1.000000" stroke="none" 
	d="
M791.558533,614.010254 
	C786.793335,607.230469 779.497498,606.993225 772.469238,605.914551 
	C770.573608,605.623657 768.838379,604.287231 767.132446,602.765625 
	C778.013733,594.155579 785.811768,583.781250 792.177734,572.092285 
	C794.246948,572.825867 795.914307,573.620728 797.669800,573.959961 
	C803.503296,575.087402 809.368469,576.051086 815.221497,577.077515 
	C814.615479,579.281128 814.284058,581.608154 813.357849,583.667786 
	C808.193970,595.150452 801.010986,605.231628 791.558533,614.010254 
z"/>
<path fill="#2383C4" opacity="1.000000" stroke="none" 
	d="
M655.705200,460.155945 
	C658.539551,465.707581 664.029236,464.004181 668.410522,464.977936 
	C674.714111,466.378998 681.050659,467.632141 687.576782,469.314301 
	C684.985535,471.252319 681.867126,472.439880 679.455566,474.467865 
	C671.890930,480.829254 664.592468,487.507141 656.713501,494.042908 
	C647.205627,493.577087 638.175049,493.130707 629.144531,492.684326 
	C635.582947,480.009491 644.199341,469.098450 655.705200,460.155945 
z"/>
<path fill="#2383C4" opacity="1.000000" stroke="none" 
	d="
M757.897156,472.282227 
	C760.676636,466.726227 766.596985,466.798187 771.374329,465.087311 
	C775.252136,463.698608 779.400757,463.192352 781.991455,458.984100 
	C793.523315,466.514008 801.924988,476.734802 808.846619,488.891602 
	C807.121033,494.537292 804.013062,495.433380 798.848877,494.707642 
	C794.369263,494.078125 789.140198,492.244781 784.639038,496.006653 
	C777.597290,485.651154 767.998779,478.683502 757.897156,472.282227 
z"/>
<path fill="#2383C4" opacity="1.000000" stroke="none" 
	d="
M405.196533,413.273285 
	C410.134125,412.395874 415.213776,411.760254 420.305695,411.245850 
	C428.539795,410.414032 436.821869,409.939453 445.004272,408.762115 
	C449.270844,408.148193 451.911377,405.145691 451.994629,400.067749 
	C455.542908,403.074829 459.087524,406.498901 462.632141,409.922974 
	C463.092926,410.722992 463.553680,411.523010 464.014465,412.323029 
	C461.479736,413.940033 458.636047,415.224182 456.468079,417.236359 
	C449.904633,423.328156 443.443542,429.549988 437.265289,436.028870 
	C434.066864,439.382874 431.872955,439.732483 428.458313,436.191040 
	C420.978546,428.433624 413.074768,421.085052 405.196533,413.273285 
z"/>
<path fill="#2C5C8A" opacity="1.000000" stroke="none" 
	d="
M665.134766,595.960205 
	C662.341125,596.989807 659.608276,598.252747 656.740967,598.999573 
	C651.069519,600.476868 645.323669,601.668884 639.191956,602.984619 
	C630.489624,592.914429 625.215698,581.296387 621.762817,568.515381 
	C630.113831,567.383179 638.051636,566.692932 646.191895,566.296021 
	C650.335938,577.850525 657.026550,587.357666 665.134766,595.960205 
z"/>
<path fill="#296698" opacity="1.000000" stroke="none" 
	d="
M815.559814,576.965820 
	C809.368469,576.051086 803.503296,575.087402 797.669800,573.959961 
	C795.914307,573.620728 794.246948,572.825867 792.213318,571.715210 
	C794.079346,562.462402 796.271240,553.734131 798.897949,545.004578 
	C807.149780,545.337952 814.966736,545.672546 822.783752,546.007141 
	C822.338379,556.702393 820.437805,567.072815 815.559814,576.965820 
z"/>
<path fill="#296698" opacity="1.000000" stroke="none" 
	d="
M645.989441,566.002686 
	C638.051636,566.692932 630.113831,567.383179 621.721313,568.105347 
	C619.961060,557.738220 618.655579,547.339111 617.802917,536.627930 
	C618.756287,537.804810 619.256897,539.293823 619.724487,540.684875 
	C623.997620,540.104675 628.058838,539.097290 632.113281,539.124023 
	C636.644897,539.153809 640.392761,538.509277 642.506714,534.415649 
	C641.293030,545.484314 643.111206,555.802246 645.989441,566.002686 
z"/>
<path fill="#2672AB" opacity="1.000000" stroke="none" 
	d="
M822.901611,545.550964 
	C814.966736,545.672546 807.149780,545.337952 798.808777,544.636047 
	C797.251526,535.180664 796.218262,526.092590 795.518555,517.074890 
	C796.777710,518.383118 797.703369,519.620972 798.336487,520.467651 
	C801.484314,519.871826 804.224792,519.527039 806.866089,518.814514 
	C811.457275,517.576111 817.826599,519.364990 818.995178,512.001770 
	C822.737183,522.740845 823.499939,533.842224 822.901611,545.550964 
z"/>
<path fill="#2672AB" opacity="1.000000" stroke="none" 
	d="
M642.478271,534.004028 
	C640.392761,538.509277 636.644897,539.153809 632.113281,539.124023 
	C628.058838,539.097290 623.997620,540.104675 619.724487,540.684875 
	C619.256897,539.293823 618.756287,537.804810 617.944214,536.188538 
	C618.940979,527.906616 620.249207,519.751892 622.070923,511.512390 
	C624.846558,511.861877 627.100586,512.344910 629.372375,512.720886 
	C634.988037,513.650269 640.611694,514.530701 646.214478,515.807007 
	C644.957275,522.123474 643.717773,528.063721 642.478271,534.004028 
z"/>
<path fill="#247BB7" opacity="1.000000" stroke="none" 
	d="
M819.004272,511.614502 
	C817.826599,519.364990 811.457275,517.576111 806.866089,518.814514 
	C804.224792,519.527039 801.484314,519.871826 798.336487,520.467651 
	C797.703369,519.620972 796.777710,518.383118 795.345337,516.746704 
	C791.528381,509.636566 788.218262,502.925018 784.908142,496.213501 
	C789.140198,492.244781 794.369263,494.078125 798.848877,494.707642 
	C804.013062,495.433380 807.121033,494.537292 808.904907,489.231201 
	C812.371338,496.339508 815.692383,503.783386 819.004272,511.614502 
z"/>
<path fill="#247BB7" opacity="1.000000" stroke="none" 
	d="
M646.232178,515.430786 
	C640.611694,514.530701 634.988037,513.650269 629.372375,512.720886 
	C627.100586,512.344910 624.846558,511.861877 622.277100,511.205170 
	C624.218140,505.031128 626.466614,499.079498 628.929810,492.906097 
	C638.175049,493.130707 647.205627,493.577087 656.576355,494.369751 
	C653.355103,501.620972 649.793640,508.525879 646.232178,515.430786 
z"/>
<path fill="#2672AB" opacity="1.000000" stroke="none" 
	d="
M428.223633,502.308594 
	C437.310822,500.725586 446.682861,499.476959 456.002380,497.914948 
	C458.128174,497.558655 460.072479,496.119690 462.458801,495.093872 
	C462.817322,504.899353 462.817322,514.789978 462.817322,524.457092 
	C459.572998,525.072998 457.531891,525.460510 455.271912,525.889587 
	C449.071960,515.084045 440.220856,507.139038 428.223633,502.308594 
z"/>
<path fill="#247BB7" opacity="1.000000" stroke="none" 
	d="
M296.896912,522.618530 
	C289.644867,523.461731 282.692719,522.792236 276.135651,518.936035 
	C282.056030,518.568481 288.110413,518.499573 294.632202,518.782104 
	C295.415985,519.026367 295.732361,518.919250 296.048737,518.812134 
	C296.362122,519.954956 296.675537,521.097839 296.896912,522.618530 
z"/>
<path fill="#2C5C8A" opacity="1.000000" stroke="none" 
	d="
M291.697266,588.676880 
	C291.056244,589.210510 290.032196,589.937256 289.003265,589.944214 
	C277.397369,590.023438 265.790680,590.001526 254.184357,589.964172 
	C253.577011,589.962219 252.970901,589.577087 252.175720,589.055054 
	C265.095490,588.671692 278.203735,588.603638 291.697266,588.676880 
z"/>
<path fill="#2289CC" opacity="1.000000" stroke="none" 
	d="
M310.357178,428.061646 
	C311.600128,428.053589 312.545898,428.210175 314.735565,428.572693 
	C312.828339,430.121368 311.696472,431.040436 310.202942,432.000854 
	C309.914154,430.770233 309.987061,429.498230 310.357178,428.061646 
z"/>
<path fill="#2672AB" opacity="1.000000" stroke="none" 
	d="
M419.316132,500.170593 
	C421.260895,500.326294 423.527496,500.631897 425.892944,501.255676 
	C423.873840,501.156036 421.755920,500.738281 419.316132,500.170593 
z"/>
<path fill="#30547E" opacity="1.000000" stroke="none" 
	d="
M607.992065,588.668152 
	C607.376038,588.188293 606.706421,587.397095 606.044067,586.239502 
	C606.680298,586.700928 607.309387,587.528870 607.992065,588.668152 
z"/>
<path fill="#30547E" opacity="1.000000" stroke="none" 
	d="
M543.875610,595.328491 
	C544.408142,595.627808 544.994019,596.193420 545.351685,597.061157 
	C544.725220,596.773743 544.327087,596.184265 543.875610,595.328491 
z"/>
<path fill="#247BB7" opacity="1.000000" stroke="none" 
	d="
M352.654175,466.921875 
	C352.423706,467.505951 351.893890,468.154388 351.004089,468.721130 
	C351.214294,468.088318 351.784546,467.537262 352.654175,466.921875 
z"/>
<path fill="#2C5C8A" opacity="1.000000" stroke="none" 
	d="
M163.269089,565.286743 
	C163.653305,565.596680 164.003311,566.182373 164.115540,566.911499 
	C163.663452,566.557495 163.449173,566.059937 163.269089,565.286743 
z"/>
<path fill="#2C5C8A" opacity="1.000000" stroke="none" 
	d="
M307.947144,589.737427 
	C307.319550,589.769531 306.756470,589.533936 306.044281,589.020386 
	C306.600677,588.984802 307.306152,589.227295 307.947144,589.737427 
z"/>
<path fill="#2672AB" opacity="1.000000" stroke="none" 
	d="
M405.276062,500.653625 
	C405.598419,500.287201 406.191101,499.972443 406.922058,499.893524 
	C406.555634,500.321350 406.050995,500.513306 405.276062,500.653625 
z"/>
<path fill="#2672AB" opacity="1.000000" stroke="none" 
	d="
M295.777649,518.692200 
	C295.732361,518.919250 295.415985,519.026367 295.014221,518.919250 
	C295.121429,518.660767 295.313995,518.616577 295.777649,518.692200 
z"/>
<path fill="#FFFFFF" opacity="1.000000" stroke="none" 
	d="
M646.214478,515.807007 
	C649.793640,508.525879 653.355103,501.620972 657.053711,494.389221 
	C664.592468,487.507141 671.890930,480.829254 679.455566,474.467865 
	C681.867126,472.439880 684.985535,471.252319 687.957764,469.366333 
	C697.017883,467.117523 705.815735,464.395172 714.802612,463.425201 
	C729.685303,461.818939 743.832642,465.430695 757.539062,472.208130 
	C767.998779,478.683502 777.597290,485.651154 784.639038,496.006653 
	C788.218262,502.925018 791.528381,509.636566 795.011719,516.676270 
	C796.218262,526.092590 797.251526,535.180664 798.373962,544.637268 
	C796.271240,553.734131 794.079346,562.462402 791.851868,571.567871 
	C785.811768,583.781250 778.013733,594.155579 767.058167,602.371338 
	C754.711548,610.537659 741.687927,616.000000 727.030090,617.152039 
	C703.555969,618.997070 683.024963,612.408386 665.438049,596.089783 
	C657.026550,587.357666 650.335938,577.850525 646.191895,566.296082 
	C643.111206,555.802246 641.293030,545.484314 642.506714,534.415649 
	C643.717773,528.063721 644.957275,522.123474 646.214478,515.807007 
M679.763306,496.691162 
	C679.763306,496.691162 679.620178,496.644104 679.005188,496.868530 
	C672.634949,502.554260 667.307495,508.967255 664.124023,517.768982 
	C662.720764,523.497986 661.317505,529.226929 659.575256,535.693970 
	C658.356445,547.261719 660.092896,558.512756 665.833252,568.494019 
	C669.652405,575.134827 675.015381,581.055359 680.450806,586.541870 
	C684.239807,590.366455 690.554199,589.156372 693.809265,585.178711 
	C697.092041,581.167236 697.070496,575.469849 692.963806,572.234314 
	C682.114502,563.686462 677.977417,552.340210 678.281799,538.243774 
	C679.581787,533.274963 680.881836,528.306091 682.702209,522.877014 
	C686.775085,514.979309 693.051941,509.128571 700.944763,504.090668 
	C715.200928,498.218689 729.174988,498.328217 742.999329,506.582825 
	C743.331665,506.700989 743.664001,506.819122 744.427368,507.162506 
	C744.427368,507.162506 744.909119,507.228485 745.279907,507.768951 
	C752.253357,512.697327 757.357788,519.083801 760.480530,527.060852 
	C763.077942,533.695984 767.959717,536.287598 773.580505,534.125000 
	C778.569702,532.205383 780.508118,526.973938 778.323303,520.654297 
	C774.930359,510.840240 769.076355,502.671234 761.173767,495.980469 
	C760.365295,495.295990 759.140259,495.103516 757.808411,494.091339 
	C756.794678,493.051666 755.913879,491.823547 754.747375,491.000275 
	C733.408203,475.939850 700.666199,477.934448 680.313171,495.741608 
	C680.103027,496.100555 679.892822,496.459503 679.763306,496.691162 
z"/>
<path fill="#FFFFFF" opacity="1.000000" stroke="none" 
	d="
M396.442169,501.300842 
	C396.388916,501.425140 396.566376,501.488220 396.591187,501.453430 
	C396.615997,501.418640 396.495422,501.176514 396.442169,501.300842 
z"/>
<path fill="#2383C4" opacity="1.000000" stroke="none" 
	d="
M742.789185,506.064636 
	C729.174988,498.328217 715.200928,498.218689 700.155212,504.019165 
	C695.015442,502.962708 690.564636,502.279663 686.353455,500.877228 
	C683.910095,500.063507 681.851807,498.093658 679.620178,496.644104 
	C679.620178,496.644104 679.763306,496.691162 680.043762,496.655975 
	C680.512939,496.230713 680.701660,495.840668 680.890381,495.450562 
	C700.666199,477.934448 733.408203,475.939850 754.747375,491.000275 
	C755.913879,491.823547 756.794678,493.051666 757.905396,494.757935 
	C755.253174,497.652069 752.429626,499.795563 749.781006,502.136993 
	C748.027222,503.687347 746.524292,505.521393 744.909119,507.228485 
	C744.909119,507.228485 744.427368,507.162506 744.071655,506.830811 
	C743.407043,506.354309 743.098083,506.209473 742.789185,506.064636 
z"/>
<path fill="#296698" opacity="1.000000" stroke="none" 
	d="
M678.045532,539.001831 
	C677.977417,552.340210 682.114502,563.686462 692.963806,572.234314 
	C697.070496,575.469849 697.092041,581.167236 693.809265,585.178711 
	C690.554199,589.156372 684.239807,590.366455 680.450806,586.541870 
	C675.015381,581.055359 669.652405,575.134827 665.833252,568.494019 
	C660.092896,558.512756 658.356445,547.261719 660.042297,535.577637 
	C660.942017,538.125305 662.270386,539.271790 665.186096,539.077148 
	C669.455200,538.792236 673.757446,539.002563 678.045532,539.001831 
z"/>
<path fill="#247BB7" opacity="1.000000" stroke="none" 
	d="
M745.094482,507.498718 
	C746.524292,505.521393 748.027222,503.687347 749.781006,502.136993 
	C752.429626,499.795563 755.253174,497.652069 758.055542,495.053619 
	C759.140259,495.103516 760.365295,495.295990 761.173767,495.980469 
	C769.076355,502.671234 774.930359,510.840240 778.323303,520.654297 
	C780.508118,526.973938 778.569702,532.205383 773.580505,534.125000 
	C767.959717,536.287598 763.077942,533.695984 760.480530,527.060852 
	C757.357788,519.083801 752.253357,512.697327 745.094482,507.498718 
z"/>
<path fill="#247BB7" opacity="1.000000" stroke="none" 
	d="
M679.312683,496.756287 
	C681.851807,498.093658 683.910095,500.063507 686.353455,500.877228 
	C690.564636,502.279663 695.015442,502.962708 699.770386,504.005768 
	C693.051941,509.128571 686.775085,514.979309 682.213745,522.777100 
	C677.495239,521.785156 673.224854,521.042969 669.055786,519.923584 
	C667.498352,519.505432 666.177124,518.207581 664.748230,517.310852 
	C667.307495,508.967255 672.634949,502.554260 679.312683,496.756287 
z"/>
<path fill="#2672AB" opacity="1.000000" stroke="none" 
	d="
M664.436157,517.539917 
	C666.177124,518.207581 667.498352,519.505432 669.055786,519.923584 
	C673.224854,521.042969 677.495239,521.785156 681.953613,523.007263 
	C680.881836,528.306091 679.581787,533.274963 678.163696,538.622803 
	C673.757446,539.002563 669.455200,538.792236 665.186096,539.077148 
	C662.270386,539.271790 660.942017,538.125305 660.211792,535.208618 
	C661.317505,529.226929 662.720764,523.497986 664.436157,517.539917 
z"/>
<path fill="#247BB7" opacity="1.000000" stroke="none" 
	d="
M680.601807,495.596100 
	C680.701660,495.840668 680.512939,496.230713 680.003418,496.719604 
	C679.892822,496.459503 680.103027,496.100555 680.601807,495.596100 
z"/>
<path fill="#247BB7" opacity="1.000000" stroke="none" 
	d="
M742.894287,506.323730 
	C743.098083,506.209473 743.407043,506.354309 743.856140,506.718201 
	C743.664001,506.819122 743.331665,506.700989 742.894287,506.323730 
z"/>
</svg>